<svg viewBox="0 0 112 126" fill="none" xmlns="http://www.w3.org/2000/svg">
<path d="M10.814 113.123L0.76001 0.35199H111.24L101.176 113.106L55.933 125.649L10.814 113.123Z" fill="#1572B6"/>
<path d="M56.001 116.062L92.56 105.926L101.161 9.57199H56.001V116.062Z" fill="#33A9DC"/>
<path d="M56.001 50.429H74.303L75.567 36.266H56.001V22.435H90.683L86.951 64.26H56.001V50.429Z" fill="white"/>
<path d="M56.083 86.349L56.022 86.367L40.619 82.208L39.634 71.177H25.752L27.689 92.894L56.02 100.757L56.083 100.739V86.349Z" fill="#EBEBEB"/>
<path d="M73.127 63.675L71.461 82.197L56.035 86.361V100.751L84.389 92.893L87.003 63.675H73.127Z" fill="white"/>
<path d="M56.048 22.435V36.266H22.64L21.402 22.435H56.048ZM56.001 50.431V64.262H40.792L39.554 50.431H56.001Z" fill="#EBEBEB"/>
</svg>
