<svg viewBox="0 0 520 460" fill="white" xmlns="http://www.w3.org/2000/svg">
<path d="M259.66 178.972L519.42 89.488L259.66 0L0 89.488C85.805 119.058 206.49 160.648 259.66 178.972ZM259.351 43.822C284.351 43.822 304.691 64.291 304.691 89.451C304.691 114.65 284.351 135.15 259.351 135.15C234.351 135.15 214.011 114.646 214.011 89.451C214.015 64.287 234.355 43.822 259.351 43.822Z"/>
<path d="M76.54 323.952C52.005 330.698 45.981 364.858 52.868 389.874C61.0946 419.765 85.911 440.116 106.903 434.339L208.173 406.48C188.595 373.132 178.036 334.773 177.794 296.1L76.54 323.952Z"/>
<path d="M256.63 197.602L108.72 146.629V257.739C117.384 260.93 151.845 273.204 178.15 276.719C492.09 190.344 360.77 226.473 404.09 214.555V148.895L262.69 197.606C261.71 197.942 260.694 198.114 259.667 198.114C258.639 198.114 257.62 197.942 256.631 197.606L256.63 197.602Z"/>
<path d="M259.35 116.562C274.096 116.562 286.092 104.402 286.092 89.457C286.092 74.547 274.096 62.426 259.35 62.426C244.604 62.426 232.608 74.547 232.608 89.457C232.608 104.406 244.604 116.562 259.35 116.562Z"/>
<path d="M464.23 244.862C446.867 257.975 443.453 273.257 454.097 290.292C459.042 298.237 471.179 290.886 466.656 282.573C464.195 278.061 465.855 272.421 470.371 269.96C484.984 261.964 496.277 295.108 473.105 308.632C440.738 327.57 404.261 266.835 453.027 230.023C456.496 227.41 460.32 225.566 464.25 224.601C446.102 216.215 429.941 226.738 422.824 245.023C406.332 287.335 441.883 342.187 475.554 332.91C527.347 321.562 489.992 225.44 464.23 244.863L464.23 244.862Z"/>
<path d="M407.91 232.792L299.35 262.659C286.405 302.311 298.311 345.585 329.717 373.039C475.877 332.828 428.643 345.824 438.327 343.16C404.366 321.062 390.007 268.961 407.909 232.79L407.91 232.792Z"/>
<path d="M278.42 268.412L196.272 291.014C195.545 329.76 206.198 368.487 226.647 401.394L308.788 378.792C280.991 349.28 269.628 307.987 278.421 268.412H278.42Z"/>
<path d="M260.43 411.382L272.852 459.437L295.817 429.835C298.352 426.573 302.727 425.386 306.559 426.886L342.118 440.835L329.587 392.358C328.657 392.608 256.271 412.526 260.431 411.381L260.43 411.382Z"/>
</svg>
