<svg viewBox="0 0 31 31" fill="none" xmlns="http://www.w3.org/2000/svg">
<path fill-rule="evenodd" clip-rule="evenodd" d="M7.89998 1.3C3.89998 -0.099999 -1.66595e-05 3.8 1.29998 7.8L3.39998 14.3C3.69998 15.4 3.69998 16.5 3.39998 17.6L1.19998 24.1C-0.200017 28.2 3.69998 32 7.69998 30.7L14.3 28.5C15.4 28.2 16.5 28.1 17.5 28.5L24 30.6C28.1 31.9 31.9 28.1 30.5 24L28.3 17.6C27.9 16.5 27.9 15.4 28.3 14.3L30.5 7.7C31.9 3.6 28 -0.199999 23.9 1.1L17.4 3.3C16.3 3.7 15.2 3.7 14.1 3.3L7.89998 1.3ZM16 23.8C18.1 23.8 20.1 23 21.5 21.5C23 20 23.8 18 23.8 16C23.8 14 23 11.9 21.5 10.5C20.1 9 18.1 8.1 16 8.1C13.9 8.1 11.9 9 10.5 10.4C8.99998 11.9 8.19998 13.9 8.19998 16C8.19998 18.1 8.99998 20.1 10.5 21.5C11.9 23 13.9 23.8 16 23.8Z" fill="#1CA8DD"/>
<path d="M13.7 18.3C14 18.6 14.4 18.8 14.8 19C15.2 19.2 15.6 19.2 16.1 19.2C16.5 19.2 17 19.1 17.4 18.9C17.8 18.7 18.2 18.5 18.5 18.2C18.8 17.9 19 17.5 19.2 17.1C19.4 16.7 19.4 16.3 19.4 15.8C19.4 15.4 19.3 14.9 19.1 14.5C18.9 14.1 18.7 13.7 18.4 13.4C17.8 12.8 16.9 12.4 16.1 12.4C15.2 12.4 14.4 12.7 13.8 13.4C13.2 14 12.8 14.9 12.8 15.7C12.7 16.9 13.1 17.7 13.7 18.3Z" fill="#1CA8DD"/>
</svg>
