<svg viewBox="0 0 525 733" fill="white" xmlns="http://www.w3.org/2000/svg">
<path d="M146.087 640.956L146.087 581.826H83.2608L146.087 640.956Z"/>
<path d="M24.1304 640.956L24.1305 581.826H86.9565L24.1304 640.956Z"/>
<path fill-rule="evenodd" clip-rule="evenodd" d="M85.0184 461.792C65.2185 461.309 45.6384 454.069 25.8807 441.838L29.7711 435.553C48.8178 447.344 67.1181 453.962 85.1986 454.403C103.219 454.843 121.388 449.156 140.243 435.688L144.539 441.703C124.589 455.953 104.879 462.277 85.0184 461.792Z"/>
<path d="M101.739 80.2174H253.261V117.174H101.739V80.2174Z"/>
<path d="M101.739 139.348H253.261V176.304H101.739V139.348Z"/>
<path d="M101.739 198.478H253.261V235.435H101.739V198.478Z"/>
<path d="M205.217 276.087H412.174V309.348H205.217V276.087Z"/>
<path d="M212.609 331.522H412.174V368.478H212.609V331.522Z"/>
<path d="M212.609 390.652H412.174V427.609H212.609V390.652Z"/>
<path d="M212.609 449.783H412.174V486.739H212.609V449.783Z"/>
<path d="M175.652 276.087L205.217 276.087V309.348L175.652 276.087Z"/>
<path d="M146.087 431.304L146.087 457.174H109.13L146.087 431.304Z"/>
<path d="M24.1304 431.304L24.1304 457.174H61.0869L24.1304 431.304Z"/>
<path d="M27.8244 256.55L27.8245 240.77H46.3044L27.8244 256.55Z"/>
<path fill-rule="evenodd" clip-rule="evenodd" d="M27.8259 240.82V63.43H46.3042V240.82H27.8259Z"/>
<path fill-rule="evenodd" clip-rule="evenodd" d="M486.087 549.565V294.565H504.565V549.565H486.087Z"/>
<path fill-rule="evenodd" clip-rule="evenodd" d="M51.3363 36.9653C48.3813 42.988 46.3043 51.9683 46.3043 65.4346H27.826C27.826 50.2597 30.1376 38.221 34.7472 28.826C39.4629 19.2146 46.3531 12.8536 54.4747 8.86663C62.3611 4.99516 71.0483 3.53573 79.2847 2.94963C85.6324 2.49793 92.3034 2.54326 98.4799 2.58523C100.228 2.59711 101.937 2.60872 103.587 2.60872L103.587 21.087C101.648 21.087 99.7494 21.0746 97.885 21.0624C91.8414 21.0229 86.1551 20.9857 80.5963 21.3813C73.4149 21.8923 67.435 23.0891 62.6176 25.454C58.0354 27.7034 54.1851 31.1589 51.3363 36.9653Z"/>
<path fill-rule="evenodd" clip-rule="evenodd" d="M476.931 603.276C460.78 611.621 439.584 612.391 419.565 612.391V593.913C440.198 593.913 456.882 592.836 468.449 586.86C473.894 584.046 478.099 580.176 481.053 574.638C484.071 568.978 486.087 560.996 486.087 549.565H504.565C504.565 563.08 502.191 574.269 497.357 583.334C492.457 592.521 485.344 598.929 476.931 603.276Z"/>
<path fill-rule="evenodd" clip-rule="evenodd" d="M486.14 287.451C486.324 270.853 486.508 254.328 477.595 233.531L494.579 226.252C505.114 250.833 504.846 271.162 504.625 287.854C504.595 290.16 504.565 292.396 504.565 294.565H486.087C486.087 292.184 486.113 289.816 486.14 287.451Z"/>
<path fill-rule="evenodd" clip-rule="evenodd" d="M381.456 19.6232C377.863 19.2515 372.676 19.2392 364.13 19.2392V0.760892C364.324 0.760892 364.516 0.760885 364.708 0.760878C372.519 0.76059 378.692 0.760364 383.357 1.24302C388.267 1.7509 393.168 2.91906 397.268 6.53685C401.004 9.83357 403.011 14.3263 404.604 18.0995C405.116 19.3129 405.625 20.5633 406.164 21.8868C407.518 25.2102 409.06 28.9945 411.307 33.8103L394.562 41.6245C392.103 36.3552 390.279 31.8778 388.892 28.473C388.404 27.2739 387.969 26.2078 387.581 25.2871C385.882 21.2648 385.232 20.5605 385.042 20.3925C385.033 20.3844 385.024 20.3768 384.993 20.3592C384.957 20.3384 384.845 20.2793 384.613 20.1996C384.105 20.0252 383.169 19.8004 381.456 19.6232Z"/>
<path fill-rule="evenodd" clip-rule="evenodd" d="M364.196 19.239L101.804 21.0868L101.674 2.60901L364.065 0.761183L364.196 19.239Z"/>
<path fill-rule="evenodd" clip-rule="evenodd" d="M478.696 235.435L393.696 39.5652L410.647 32.2092L495.647 228.079L478.696 235.435Z"/>
<path fill-rule="evenodd" clip-rule="evenodd" d="M419.565 612.391H179.348V593.913H419.565V612.391Z"/>
<path d="M171.956 342.609C171.956 389.553 133.901 427.609 86.9564 427.609C40.0122 427.609 1.9564 389.553 1.9564 342.609C1.9564 295.665 40.0122 257.609 86.9564 257.609C133.901 257.609 171.956 295.665 171.956 342.609Z"/>
<path fill-rule="evenodd" clip-rule="evenodd" d="M24 583V455H146V583H24Z"/>
<path fill-rule="evenodd" clip-rule="evenodd" d="M489.783 272.391L323.478 80.2174L337.451 68.1256L503.755 260.3L489.783 272.391Z"/>
<path fill-rule="evenodd" clip-rule="evenodd" d="M404.783 32.1739L338.261 91.3044L325.985 77.4935L392.506 18.3631L404.783 32.1739Z"/>
<path d="M0.627808 731.435V679.696H23.0235C27.6553 679.696 31.6467 680.459 34.9974 681.987C38.3481 683.465 40.9351 685.609 42.7582 688.417C44.5814 691.226 45.493 694.577 45.493 698.47C45.493 702.313 44.5814 705.639 42.7582 708.448C40.9351 711.257 38.3481 713.425 34.9974 714.952C31.6467 716.43 27.6553 717.17 23.0235 717.17H7.27998L12.6017 711.774V731.435H0.627808ZM12.6017 713.104L7.27998 707.413H22.3582C26.0539 707.413 28.8133 706.625 30.6365 705.048C32.4597 703.471 33.3713 701.278 33.3713 698.47C33.3713 695.612 32.4597 693.394 30.6365 691.817C28.8133 690.241 26.0539 689.452 22.3582 689.452H7.27998L12.6017 683.761V713.104Z"/>
<path d="M76.7398 732.322C69.3977 732.322 63.6572 730.277 59.518 726.187C55.3789 722.097 53.3093 716.258 53.3093 708.67V679.696H65.2832V708.226C65.2832 713.154 66.2934 716.701 68.3137 718.87C70.334 721.038 73.1673 722.122 76.8137 722.122C80.4601 722.122 83.2934 721.038 85.3137 718.87C87.334 716.701 88.3441 713.154 88.3441 708.226V679.696H100.17V708.67C100.17 716.258 98.1006 722.097 93.9615 726.187C89.8224 730.277 84.0818 732.322 76.7398 732.322Z"/>
<path d="M112.003 731.435V679.696H137.281C143.785 679.696 148.663 680.928 151.916 683.391C155.217 685.855 156.868 689.107 156.868 693.148C156.868 695.858 156.203 698.223 154.872 700.243C153.542 702.214 151.719 703.742 149.403 704.826C147.087 705.91 144.426 706.452 141.42 706.452L142.824 703.422C146.077 703.422 148.959 703.964 151.472 705.048C153.985 706.083 155.932 707.635 157.311 709.704C158.74 711.774 159.455 714.312 159.455 717.317C159.455 721.752 157.706 725.226 154.207 727.739C150.708 730.203 145.559 731.435 138.759 731.435H112.003ZM123.903 722.417H137.872C140.977 722.417 143.317 721.925 144.894 720.939C146.52 719.904 147.333 718.278 147.333 716.061C147.333 713.893 146.52 712.291 144.894 711.257C143.317 710.172 140.977 709.63 137.872 709.63H123.016V700.909H135.803C138.71 700.909 140.927 700.416 142.455 699.43C144.032 698.396 144.82 696.843 144.82 694.774C144.82 692.754 144.032 691.251 142.455 690.265C140.927 689.23 138.71 688.713 135.803 688.713H123.903V722.417Z"/>
<path d="M168.52 731.435V679.696H180.494V721.678H206.438V731.435H168.52Z"/>
<path d="M213.128 731.435V679.696H225.102V731.435H213.128Z"/>
<path d="M262.141 732.322C258.15 732.322 254.43 731.681 250.98 730.4C247.58 729.07 244.624 727.197 242.111 724.783C239.598 722.368 237.627 719.535 236.198 716.283C234.818 713.03 234.128 709.458 234.128 705.565C234.128 701.672 234.818 698.1 236.198 694.848C237.627 691.596 239.598 688.762 242.111 686.348C244.673 683.933 247.654 682.085 251.054 680.804C254.454 679.474 258.175 678.809 262.215 678.809C266.699 678.809 270.74 679.597 274.337 681.174C277.983 682.701 281.038 684.968 283.502 687.974L275.815 695.07C274.041 693.049 272.07 691.546 269.902 690.561C267.734 689.526 265.369 689.009 262.807 689.009C260.392 689.009 258.175 689.403 256.154 690.191C254.134 690.98 252.385 692.113 250.907 693.591C249.428 695.07 248.27 696.819 247.433 698.839C246.644 700.859 246.25 703.101 246.25 705.565C246.25 708.029 246.644 710.271 247.433 712.291C248.27 714.312 249.428 716.061 250.907 717.539C252.385 719.017 254.134 720.151 256.154 720.939C258.175 721.727 260.392 722.122 262.807 722.122C265.369 722.122 267.734 721.629 269.902 720.643C272.07 719.609 274.041 718.057 275.815 715.987L283.502 723.083C281.038 726.088 277.983 728.38 274.337 729.956C270.74 731.533 266.675 732.322 262.141 732.322Z"/>
<path d="M283.85 731.435L306.911 679.696H318.737L341.872 731.435H329.306L310.385 685.757H315.115L296.119 731.435H283.85ZM295.38 720.348L298.559 711.257H325.167L328.419 720.348H295.38Z"/>
<path d="M355.358 731.435V689.452H338.802V679.696H383.889V689.452H367.332V731.435H355.358Z"/>
<path d="M390.331 731.435V679.696H402.305V731.435H390.331Z"/>
<path d="M439.715 732.322C435.625 732.322 431.831 731.656 428.332 730.326C424.883 728.996 421.877 727.123 419.315 724.709C416.802 722.294 414.831 719.461 413.402 716.209C412.022 712.957 411.332 709.409 411.332 705.565C411.332 701.722 412.022 698.174 413.402 694.922C414.831 691.67 416.826 688.836 419.388 686.422C421.951 684.007 424.957 682.135 428.406 680.804C431.855 679.474 435.6 678.809 439.641 678.809C443.731 678.809 447.475 679.474 450.875 680.804C454.325 682.135 457.306 684.007 459.819 686.422C462.381 688.836 464.377 691.67 465.806 694.922C467.235 698.125 467.949 701.672 467.949 705.565C467.949 709.409 467.235 712.981 465.806 716.283C464.377 719.535 462.381 722.368 459.819 724.783C457.306 727.148 454.325 728.996 450.875 730.326C447.475 731.656 443.755 732.322 439.715 732.322ZM439.641 722.122C441.957 722.122 444.075 721.727 445.997 720.939C447.968 720.151 449.693 719.017 451.171 717.539C452.649 716.061 453.783 714.312 454.571 712.291C455.409 710.271 455.828 708.029 455.828 705.565C455.828 703.101 455.409 700.859 454.571 698.839C453.783 696.819 452.649 695.07 451.171 693.591C449.742 692.113 448.042 690.98 446.071 690.191C444.1 689.403 441.957 689.009 439.641 689.009C437.325 689.009 435.181 689.403 433.21 690.191C431.288 690.98 429.588 692.113 428.11 693.591C426.632 695.07 425.474 696.819 424.636 698.839C423.848 700.859 423.454 703.101 423.454 705.565C423.454 707.98 423.848 710.222 424.636 712.291C425.474 714.312 426.607 716.061 428.036 717.539C429.515 719.017 431.239 720.151 433.21 720.939C435.181 721.727 437.325 722.122 439.641 722.122Z"/>
<path d="M476.948 731.435V679.696H486.853L517.379 716.948H512.574V679.696H524.4V731.435H514.57L483.97 694.183H488.774V731.435H476.948Z"/>
</svg>
