<svg viewBox="0 0 108 124" fill="none" xmlns="http://www.w3.org/2000/svg">
<path d="M105.4 28.7L57.1 0.900012C56.3 0.400012 55.2 0.200012 54 0.200012C52.8 0.200012 51.7 0.500012 50.9 0.900012L2.9 28.8C1.2 29.8 0 32.3 0 34.2V89.9C0 91 0.2 92.3 1 93.4L107.8 31.4C107.2 30.2 106.3 29.3 105.4 28.7Z" fill="#659AD3"/>
<path d="M0.7 93.3C1.2 94.1 1.9 94.8 2.6 95.2L50.8 123.1C51.6 123.6 52.7 123.8 53.9 123.8C55.1 123.8 56.2 123.5 57 123.1L105 95.2C106.7 94.2 107.9 91.7 107.9 89.8V34.1C107.9 33.2 107.8 32.2 107.3 31.3L0.7 93.3Z" fill="#03599C"/>
<path d="M75.3 74.1C71.1 81.5 63.1 86.5 54 86.5C40.5 86.5 29.5 75.5 29.5 62C29.5 48.5 40.5 37.5 54 37.5C63.1 37.5 71.1 42.5 75.3 50L88.3 42.5C81.5 30.6 68.7 22.5 54 22.5C32.2 22.5 14.5 40.2 14.5 62C14.5 83.8 32.2 101.5 54 101.5C68.6 101.5 81.4 93.5 88.2 81.7L75.3 74.1Z" fill="white"/>
</svg>
