<svg viewBox="0 0 108 124" fill="none" xmlns="http://www.w3.org/2000/svg">
<path d="M108 36.4168C108 34.3449 107.567 32.4767 106.669 30.9143C105.804 29.3518 104.506 28.0611 102.776 27.0421C88.403 18.5845 73.9963 10.1268 59.6229 1.66919C55.7301 -0.60656 52.0037 -0.538627 48.1442 1.77109C42.4214 5.20169 13.7412 21.9811 5.22366 27.0421C1.69686 29.114 0 32.3069 0 36.4508C0 53.4679 0 70.5191 0 87.5362C0 89.5742 0.432531 91.3744 1.26432 92.9369C2.12939 94.5333 3.46026 95.892 5.22366 96.9449C13.7745 102.006 42.4214 118.751 48.1442 122.216C52.0037 124.526 55.7634 124.628 59.6229 122.318C73.9963 113.826 88.403 105.403 102.776 96.9449C104.573 95.892 105.871 94.5673 106.736 92.9369C107.567 91.3744 108 89.5742 108 87.5362C108 87.5023 108 53.434 108 36.4168Z" fill="#5C8DBC"/>
<path d="M54.1331 61.7897L1.19779 92.9029C2.06285 94.4993 3.39372 95.858 5.15712 96.911C13.708 101.972 42.3549 118.717 48.0776 122.182C51.9372 124.492 55.6969 124.594 59.5564 122.284C73.9298 113.792 88.3364 105.369 102.71 96.911C104.506 95.858 105.804 94.5333 106.669 92.9029L54.1331 61.7897Z" fill="#1A4674"/>
<path d="M38.4621 70.9946C41.5564 76.4972 47.3457 80.1995 53.9667 80.1995C60.6544 80.1995 66.4769 76.4632 69.5379 70.8927L54.1331 61.7897L38.4621 70.9946Z" fill="#1A4674"/>
<path d="M108 36.4168C108 34.3449 107.567 32.4767 106.669 30.9143L54.1331 61.7897L106.736 92.9029C107.567 91.3405 108 89.5403 108 87.5023C108 87.5023 108 53.434 108 36.4168Z" fill="#1B598E"/>
<path d="M105.105 64.0315H100.98V68.2094H96.8873V64.0315H92.7616V59.8197H96.8873V55.6418H100.98V59.8197H105.105V64.0315Z" fill="white"/>
<path d="M90.0998 64.0315H85.9742V68.2094H81.8817V64.0315H77.756V59.8197H81.8817V55.6418H85.9742V59.8197H90.0998V64.0315Z" fill="white"/>
<path d="M69.5379 70.8927C66.4769 76.4292 60.6544 80.1995 53.9667 80.1995C47.3124 80.1995 41.5231 76.4972 38.4621 70.9946C36.9649 68.3113 36.0998 65.2543 36.0998 61.9595C36.0998 51.8715 44.085 43.7196 53.9667 43.7196C60.5545 43.7196 66.3105 47.388 69.4048 52.8226L85.0092 43.6517C78.7874 32.7145 67.2089 25.3438 53.9335 25.3438C34.1035 25.3438 18.0665 41.7495 18.0665 61.9595C18.0665 68.583 19.7967 74.8328 22.8244 80.1995C29.0129 91.1706 40.658 98.5753 53.9667 98.5753C67.3087 98.5753 78.9538 91.1367 85.1423 80.0976L69.5379 70.8927Z" fill="white"/>
</svg>
