<svg viewBox="0 0 110 126" fill="none" xmlns="http://www.w3.org/2000/svg">
<path d="M10.037 112.876L0.0319824 0.661011H109.968L99.952 112.859L54.933 125.339L10.037 112.876Z" fill="#E44D26"/>
<path d="M55 115.8L91.378 105.714L99.937 9.83601H55V115.8Z" fill="#F16529"/>
<path d="M55 51.455H36.788L35.53 37.361H55V23.599H20.489L24.201 65.218H55V51.455ZM55 87.198L54.939 87.215L39.612 83.075L38.633 72.1H24.816L26.744 93.709L54.937 101.535L55 101.518V87.198Z" fill="#EBEBEB"/>
<path d="M54.952 51.455V65.218H71.899L70.302 83.067L54.952 87.21V101.529L83.167 93.709L86.608 55.151L86.943 51.455H54.952ZM54.952 23.599V37.361H88.196L89.429 23.599H54.952Z" fill="white"/>
</svg>
