<svg viewBox="0 0 118 60" fill="none" xmlns="http://www.w3.org/2000/svg">
<path d="M59.026 59.694C91.386 59.694 117.62 46.399 117.62 30C117.62 13.601 91.387 0.306 59.026 0.306C26.665 0.306 0.432983 13.601 0.432983 30C0.432983 46.399 26.666 59.694 59.026 59.694Z" fill="#6181B6"/>
<path d="M70.896 39.598L73.802 24.64C74.458 21.263 73.912 18.744 72.182 17.154C70.505 15.614 67.659 14.866 63.479 14.866H58.446L59.886 7.454C59.9125 7.31609 59.9082 7.17404 59.8735 7.03798C59.8388 6.90191 59.7745 6.77517 59.6852 6.66678C59.5959 6.5584 59.4838 6.47104 59.3569 6.41092C59.23 6.35081 59.0914 6.31942 58.951 6.319H52.004C51.7828 6.31907 51.5685 6.396 51.3977 6.53665C51.227 6.67729 51.1104 6.8729 51.068 7.09L47.982 22.971C47.702 21.184 47.009 19.648 45.903 18.38C43.865 16.048 40.642 14.865 36.323 14.865H22.856C22.6348 14.8647 22.4204 14.9416 22.2498 15.0823C22.0791 15.223 21.9628 15.4188 21.921 15.636L15.674 47.78C15.6473 47.9179 15.6514 48.0599 15.6861 48.196C15.7207 48.3321 15.785 48.4589 15.8743 48.5673C15.9637 48.6756 16.0759 48.7629 16.2029 48.8228C16.3299 48.8828 16.4685 48.9139 16.609 48.914H23.611C23.8322 48.9141 24.0467 48.8373 24.2174 48.6966C24.3882 48.5559 24.5047 48.3602 24.547 48.143L26.058 40.368H31.271C34.006 40.368 36.303 40.072 38.098 39.487C39.932 38.891 41.62 37.88 43.109 36.486C44.2791 35.4204 45.2775 34.1805 46.069 32.81L44.821 39.234C44.7937 39.3719 44.7975 39.5142 44.8319 39.6506C44.8663 39.7869 44.9306 39.9139 45.02 40.0224C45.1095 40.1308 45.2219 40.2181 45.3492 40.2779C45.4764 40.3377 45.6154 40.3684 45.756 40.368H52.703C52.9242 40.3679 53.1385 40.291 53.3092 40.1504C53.48 40.0097 53.5966 39.8141 53.639 39.597L57.068 21.952H61.835C63.866 21.952 64.461 22.356 64.622 22.53C64.769 22.689 65.074 23.248 64.732 25.01L61.968 39.233C61.9408 39.3709 61.9445 39.5132 61.9789 39.6496C62.0133 39.7859 62.0776 39.9129 62.167 40.0214C62.2565 40.1298 62.3689 40.2171 62.4962 40.2769C62.6234 40.3367 62.7624 40.3674 62.903 40.367H69.961C70.1819 40.3674 70.396 40.2908 70.5667 40.1505C70.7373 40.0102 70.8537 39.8148 70.896 39.598ZM38.688 27.238C38.251 29.48 37.429 31.08 36.244 31.993C35.039 32.92 33.112 33.39 30.517 33.39H27.413L29.657 21.842H33.669C36.617 21.842 37.805 22.472 38.281 23C38.943 23.734 39.083 25.199 38.688 27.238ZM100.604 18.38C98.566 16.048 95.343 14.865 91.023 14.865H77.559C77.3377 14.8647 77.1232 14.9415 76.9523 15.0822C76.7815 15.2229 76.6651 15.4187 76.623 15.636L70.375 47.78C70.3483 47.9179 70.3524 48.0599 70.3871 48.196C70.4217 48.3321 70.486 48.4589 70.5753 48.5673C70.6647 48.6756 70.7769 48.7629 70.9039 48.8228C71.0309 48.8828 71.1695 48.9139 71.31 48.914H78.313C78.5341 48.9139 78.7482 48.8369 78.9188 48.6963C79.0894 48.5556 79.2058 48.36 79.248 48.143L80.76 40.368H85.972C88.707 40.368 91.005 40.072 92.799 39.487C94.634 38.891 96.321 37.88 97.81 36.486C99.051 35.345 100.074 34.065 100.847 32.68C101.637 31.248 102.194 29.6992 102.497 28.092C103.294 23.998 102.657 20.729 100.604 18.38ZM93.342 27.238C92.905 29.48 92.083 31.08 90.898 31.993C89.694 32.92 87.767 33.39 85.171 33.39H82.067L84.312 21.842H88.324C91.272 21.842 92.46 22.472 92.936 23C93.598 23.734 93.737 25.199 93.342 27.238Z" fill="white"/>
<path d="M33.67 20.89C36.33 20.89 38.104 21.381 38.99 22.364C39.875 23.346 40.087 25.032 39.623 27.421C39.139 29.909 38.207 31.685 36.825 32.749C35.443 33.812 33.34 34.344 30.517 34.344H26.257L28.871 20.891L33.67 20.89ZM16.609 47.962H23.611L25.272 39.416H31.27C33.916 39.416 36.093 39.139 37.802 38.582C39.511 38.026 41.065 37.094 42.463 35.785C43.5972 34.7549 44.5593 33.55 45.313 32.216C46.04 30.916 46.555 29.482 46.86 27.911C47.601 24.1 47.042 21.133 45.184 19.007C43.326 16.881 40.372 15.818 36.322 15.818H22.856L16.609 47.962ZM52.003 7.271H58.95L57.289 15.817H63.478C67.372 15.817 70.058 16.497 71.537 17.854C73.016 19.213 73.458 21.415 72.867 24.457L69.961 39.416H62.903L65.666 25.193C65.98 23.575 65.865 22.471 65.319 21.882C64.773 21.295 63.611 21 61.834 21H56.281L52.703 39.416H45.756L52.003 7.271ZM88.324 20.89C90.984 20.89 92.758 21.381 93.643 22.364C94.53 23.346 94.74 25.032 94.277 27.421C93.793 29.909 92.86 31.685 91.478 32.749C90.096 33.812 87.994 34.344 85.17 34.344H80.911L83.525 20.891L88.324 20.89ZM71.264 47.962H78.266L79.927 39.416H85.924C88.57 39.416 90.747 39.139 92.456 38.582C94.166 38.026 95.72 37.094 97.117 35.785C98.2518 34.7552 99.2143 33.5503 99.968 32.216C100.694 30.916 101.21 29.482 101.515 27.911C102.255 24.1 101.697 21.133 99.839 19.007C97.981 16.881 95.027 15.818 90.976 15.818H77.511L71.264 47.962Z" fill="#000004"/>
</svg>
